<svg id="Layer_1" data-name="Layer 1" xmlns="http://www.w3.org/2000/svg" xmlns:xlink="http://www.w3.org/1999/xlink" viewBox="0 0 569.68 160.68"><defs><style>.cls-1{fill:#f1f2f2;}.cls-2{fill:#595a5c;}.cls-3{fill:#e7e7e7;}.cls-4{font-size:11px;font-family:AvenirNextLTPro-Bold, Avenir Next LT Pro;}.cls-12,.cls-4{fill:#41527a;}.cls-5{font-weight:700;letter-spacing:0.04em;}.cls-6{font-size:9px;fill:#41537b;}.cls-13,.cls-6,.cls-7{font-family:AvenirNextLTPro-Regular, Avenir Next LT Pro;}.cls-7{font-size:9.05px;}.cls-13,.cls-7{fill:#60637b;}.cls-8,.cls-9{font-size:7.24px;}.cls-9{letter-spacing:0em;}.cls-10{fill:#61637b;}.cls-11{fill:#61647c;}.cls-12{font-size:8px;}.cls-12,.cls-17{font-family:Jaapokki-Regular, Jaapokki;}.cls-14{fill:url(#radial-gradient);}.cls-15{fill:#bcbec0;}.cls-16{fill:#283249;}.cls-17{font-size:31.38px;fill:#7f7f7d;}.cls-18{letter-spacing:-0.03em;}.cls-19{letter-spacing:-0.07em;}</style><radialGradient id="radial-gradient" cx="409.17" cy="74.74" fx="346.3981452870037" fy="40.0468079412646" r="240.73" gradientUnits="userSpaceOnUse"><stop offset="0" stop-color="#282d5b"/><stop offset="0.48" stop-color="#161b31"/><stop offset="0.56" stop-color="#13182a"/><stop offset="0.65" stop-color="#161c2e"/><stop offset="0.75" stop-color="#1f273b"/><stop offset="0.76" stop-color="#20283d"/></radialGradient></defs><title>anquan biz</title><g id="_Group_" data-name="&lt;Group&gt;"><g id="_Rectangle_" data-name="&lt;Rectangle&gt;"><rect class="cls-1" x="0.5" y="0.5" width="278.68" height="159.68"/><path class="cls-2" d="M299.84,28.53V187.2H22.16V28.53H299.84m1-1H21.16V188.2H300.84V27.53Z" transform="translate(-21.16 -27.53)"/></g><g id="_Group_2" data-name="&lt;Group&gt;"><rect id="_Rectangle_2" data-name="&lt;Rectangle&gt;" class="cls-3" x="1.45" y="99.89" width="68.03" height="59.79"/><rect id="_Rectangle_3" data-name="&lt;Rectangle&gt;" class="cls-3" x="1.45" y="1" width="68.03" height="86.89"/></g><text x="-21.16" y="-27.53"></text><g id="_Group_3" data-name="&lt;Group&gt;"><g id="_Group_4" data-name="&lt;Group&gt;"><rect id="_Rectangle_4" data-name="&lt;Rectangle&gt;" class="cls-3" x="80.03" y="1" width="198.65" height="86.89"/><text class="cls-4" transform="translate(95.48 21)"><tspan class="cls-5">PATRICK BATEMAN</tspan><tspan class="cls-6"><tspan x="0" y="10.8">CO FOUNDER</tspan></tspan></text><g id="_Group_5" data-name="&lt;Group&gt;"><text class="cls-7" transform="translate(95.48 45.61)"><tspan xml:space="preserve">      </tspan><tspan class="cls-8" x="13.57" y="0">anquancapital.com</tspan><tspan x="0" y="10.86" xml:space="preserve">      </tspan><tspan class="cls-8" x="13.57" y="10.86">patrick@anquancapital.com</tspan><tspan x="0" y="21.72" xml:space="preserve">      </tspan><tspan class="cls-9" x="13.57" y="21.72">+65 8765 4321 (SG)</tspan><tspan x="0" y="32.58" xml:space="preserve">      </tspan><tspan class="cls-9" x="13.57" y="32.58">+44 7654 000007 (UK)</tspan></text><g id="_Group_6" data-name="&lt;Group&gt;"><path id="_Compound_Path_" data-name="&lt;Compound Path&gt;" class="cls-10" d="M125.2,84.09,123,81.88l2.2-2.19v4.39Zm-7.12.41,2.21-2.21.49.48a.89.89,0,0,0,1.34,0l.49-.48,2.21,2.21Zm6.74-5.27-3.15,3.16a.31.31,0,0,1-.45,0l-3.15-3.16Zm-7.13.46,2.2,2.19-2.2,2.2V79.69Z" transform="translate(-21.16 -27.53)"/><g id="Page-1"><g id="Icons-Communication"><g id="phone"><path id="Shape" class="cls-10" d="M119.42,92.1a5.85,5.85,0,0,0,2.48,2.48l.83-.83a.3.3,0,0,1,.38-.08,3.93,3.93,0,0,0,1.35.23.36.36,0,0,1,.38.38v1.28a.36.36,0,0,1-.38.38,6.38,6.38,0,0,1-6.39-6.39.36.36,0,0,1,.38-.38h1.32a.36.36,0,0,1,.38.38,4.26,4.26,0,0,0,.23,1.35.46.46,0,0,1-.08.38l-.86.83Z" transform="translate(-21.16 -27.53)"/></g></g></g><path id="_Compound_Path_2" data-name="&lt;Compound Path&gt;" class="cls-11" d="M121.45,67.36a3.81,3.81,0,1,0,3.81,3.81,3.81,3.81,0,0,0-3.81-3.81m-.27,2.13a4,4,0,0,1-1.06-.21A3.17,3.17,0,0,1,121.18,68Zm0,.54v.88H119.7a4.4,4.4,0,0,1,.22-1.13,4.57,4.57,0,0,0,1.27.25m0,1.42v.87a4.56,4.56,0,0,0-1.27.25,4.36,4.36,0,0,1-.21-1.12Zm0,1.41v1.49a3.18,3.18,0,0,1-1.07-1.27,4,4,0,0,1,1.07-.21m.54,0a4,4,0,0,1,1.07.21,3.19,3.19,0,0,1-1.07,1.27Zm0-.54v-.87h1.48a4.36,4.36,0,0,1-.21,1.12,4.56,4.56,0,0,0-1.27-.25m0-1.41V70a4.57,4.57,0,0,0,1.27-.25,4.4,4.4,0,0,1,.22,1.13Zm0-1.42V68a3.17,3.17,0,0,1,1.06,1.26,4,4,0,0,1-1.06.21m.93-1.36a3.28,3.28,0,0,1,1,.67,3.31,3.31,0,0,1-.42.27,4,4,0,0,0-.62-.94m-3,.94a3.3,3.3,0,0,1-.42-.27,3.27,3.27,0,0,1,1-.67,4,4,0,0,0-.62.94m-.2.5a5,5,0,0,0-.26,1.34h-1a3.26,3.26,0,0,1,.65-1.71,3.76,3.76,0,0,0,.58.36m-.26,1.88a5,5,0,0,0,.25,1.34,3.81,3.81,0,0,0-.58.36,3.25,3.25,0,0,1-.65-1.7h1Zm.46,1.84a4,4,0,0,0,.61.93,3.29,3.29,0,0,1-1-.67,3.25,3.25,0,0,1,.42-.27m3.67,0a3.21,3.21,0,0,1,.42.27,3.27,3.27,0,0,1-1,.67,4,4,0,0,0,.61-.93m.2-.5a5,5,0,0,0,.25-1.34h1a3.25,3.25,0,0,1-.65,1.7,3.84,3.84,0,0,0-.58-.36m.25-1.87a5,5,0,0,0-.26-1.34,3.75,3.75,0,0,0,.58-.36,3.26,3.26,0,0,1,.65,1.71h-1Z" transform="translate(-21.16 -27.53)"/><g id="Page-1-2" data-name="Page-1"><g id="Icons-Communication-2" data-name="Icons-Communication"><g id="phone-2" data-name="phone"><path id="Shape-2" data-name="Shape" class="cls-10" d="M119.42,102.8a5.85,5.85,0,0,0,2.48,2.48l.83-.83a.3.3,0,0,1,.38-.08,3.93,3.93,0,0,0,1.35.23.36.36,0,0,1,.38.38v1.28a.36.36,0,0,1-.38.38,6.38,6.38,0,0,1-6.39-6.39.36.36,0,0,1,.38-.38h1.32a.36.36,0,0,1,.38.38,4.26,4.26,0,0,0,.23,1.35.46.46,0,0,1-.08.38l-.86.83Z" transform="translate(-21.16 -27.53)"/></g></g></g></g></g></g><g id="_Group_7" data-name="&lt;Group&gt;"><rect id="_Rectangle_5" data-name="&lt;Rectangle&gt;" class="cls-3" x="80.03" y="99.89" width="198.65" height="59.79"/><text class="cls-12" transform="translate(94.42 117.61)">ANQUAN<tspan class="cls-13"><tspan x="0" y="12">The Hangar</tspan><tspan x="0" y="21.6">21 Heng Mui Keng Terrace</tspan><tspan x="0" y="31.2">Singapore 119613</tspan></tspan></text></g></g></g><g id="_Group_8" data-name="&lt;Group&gt;"><g id="_Rectangle_6" data-name="&lt;Rectangle&gt;"><rect id="_Path_" data-name="&lt;Path&gt;" class="cls-14" x="290.5" y="0.5" width="278.68" height="159.68"/><path id="_Compound_Path_3" data-name="&lt;Compound Path&gt;" class="cls-15" d="M589.84,28.53V187.2H312.16V28.53H589.84m1-1H311.16V188.2H590.84V27.53Z" transform="translate(-21.16 -27.53)"/></g><rect id="_Rectangle_7" data-name="&lt;Rectangle&gt;" class="cls-16" x="291" y="1" width="198.65" height="86.89"/><rect id="_Rectangle_8" data-name="&lt;Rectangle&gt;" class="cls-16" x="291" y="99.89" width="198.65" height="59.79"/><rect id="_Rectangle_9" data-name="&lt;Rectangle&gt;" class="cls-16" x="500.65" y="99.89" width="68.03" height="59.79"/><rect id="_Rectangle_10" data-name="&lt;Rectangle&gt;" class="cls-16" x="500.65" y="1" width="68.03" height="86.89"/><text class="cls-17" transform="translate(322.47 54.28)"><tspan class="cls-18">A</tspan><tspan x="24.13" y="0">NQ</tspan><tspan class="cls-19" x="72.37" y="0">U</tspan><tspan class="cls-18" x="90.36" y="0">A</tspan><tspan x="114.49" y="0">N</tspan></text></g></svg>