<svg xmlns="http://www.w3.org/2000/svg" viewBox="0 0 2328.88 2329.51"><defs><style>.cls-1{fill:#c12126;}.cls-2{fill:#fffffe;}</style></defs><title>Asset 1</title><g id="Layer_2" data-name="Layer 2"><g id="Layer_1-2" data-name="Layer 1"><path class="cls-1" d="M1164.65,0c646.54,3.09,1166.72,519,1164.22,1169.76-2.49,647.86-523.41,1163.12-1170.56,1159.73C508.5,2326.09-4.12,1801.59,0,1157.42,4.14,518,517.22,3.12,1164.65,0Zm-.4,2295.09c627.82-1.56,1128.54-506.82,1129.88-1127.49C2295.48,545.32,1794.85,36.51,1166.19,35.44,542.32,34.38,35.32,536,34.82,1164.16,34.32,1792.81,540.91,2293.57,1164.25,2295.09Z"/><path class="cls-2" d="M1164.25,2295.09C540.91,2293.57,34.32,1792.81,34.82,1164.16,35.32,536,542.32,34.38,1166.19,35.44c628.66,1.07,1129.3,509.88,1127.94,1132.16C2292.78,1788.27,1792.07,2293.53,1164.25,2295.09ZM1319,218c-524.82.77-952,420.22-956.35,948-4.36,534.5,424.81,962.65,953.24,963.87,533.18,1.23,956.79-428.92,958.42-952.76C2276,651.06,1852.24,219.59,1319,218Z"/><path class="cls-1" d="M1319,218c533.24,1.58,956.95,433,955.31,959.14-1.63,523.84-425.25,954-958.42,952.76C787.47,2128.7,358.3,1700.55,362.66,1166,367,638.23,794.18,218.79,1319,218ZM2038.14,1247.3c3.47-1,7-1.9,10.41-3.15,18.93-7,37.83-14.11,57.17-21.35l45.4,58.59-2.15-74.76,65.52-24.7-66.77-20c-2.26-22.36-1.19-44.05-4.71-65.76l-38,53.16-69.49-20.38-.63,1.56,43.22,56.42-41.2,59-1.8,2.23Zm-483.6-733.51,68.51-18c13.84,21.2,25.8,42.71,40.46,64.84l3.51-76.19,69.36-18.17.05-1.62-67.3-26.18,2.84-67.4-1.61-.67-43.11,52L1563.48,398,1599,456.24c-2.19,2.79-4.18,5.42-6.27,8-11.86,14.39-23.79,28.71-35.54,43.18-1.41,1.73-4.88,3.1-2.53,6.43l-.75-.27Zm-714,1003.65,1.76-.88c-.47-1.88-.85-3.78-1.42-5.63-10.4-34.11-19-68.62-23.93-104-4.07-29.48-5.88-59-1.07-88.59,10.36-63.76,61.5-107.83,125.87-107.27,21.28.18,42.55,2.4,63.81,3.91,41.86,3,83.7,6.24,125.57,9.19a714.47,714.47,0,0,0,122.81-1.51q71-7.24,141.08-21.45c48.27-9.73,94.45-25,137.42-49.33,3.09-1.75,6.07-3.7,9.1-5.56-7.88.46-15.06,2.66-22.26,4.73a794.08,794.08,0,0,1-159.85,28.6c-48.68,3.72-97.22,3.35-145.62-3.11-49.24-6.57-97.44-17.9-144.86-32.65-69.38-21.58-136.2-49.36-201-82.1-34.74-17.53-69.83-34.4-107.21-45.8-18.85-5.75-38-9.8-57.93-8.94-25.77,1.12-41.65,14.3-47,39.32-3.32,15.54-2.6,31.21-1,46.78,3.41,32.26,11.6,63.44,22.2,94.05a1244.23,1244.23,0,0,0,71.44,165.86c28.35,54.64,59.78,107.67,89.88,161.4A27.57,27.57,0,0,0,840.53,1517.44Zm370.76,78.77h73.62c1-2.45,1.94-4.56,2.62-6.75,22.94-73,45.75-145.94,68.94-218.82,2.2-6.91,1.07-11.4-4.15-15.12h-68.77c-12.68,44.56-23.93,89.34-36.7,133.67l-2-.21-33.55-133.24h-71l-33,134.26-1.76.07L1069,1355.17c-22.73,0-45-.07-67.29.12-2,0-4.16,1.49-5.86,2.78-5.25,4-2.7,9-1.23,13.58q33.71,106.51,67.55,213c1.28,4,2.85,8,4.12,11.44h74.15l33.95-133.51,1.34-.11ZM1772.45,1371c-7-4.42-12.56-8.59-18.67-11.67-43.41-21.83-105.25-11-133.7,43.17-23.09,43.94-23.15,89.73-4.7,135.14,21.44,52.77,69.93,73.2,124.13,61.16a71.74,71.74,0,0,0,30.25-14.72c1.67-1.37,3.53-2.49,6.11-4.3,0,2.79-.11,4.45,0,6.08.56,7.2,4,10.6,11.39,10.67q24.49.22,49,0c7.89-.07,11.32-3.7,11.59-11.53,0-1.33,0-2.67,0-4q0-148.94,0-297.88c0-1.33,0-2.67,0-4-.29-7.38-3.56-10.91-11-11q-26.49-.24-53,0c-7.89.07-11.2,3.71-11.45,11.71-.07,2.33,0,4.66,0,7Zm-262.37,63.59c19.23,0,37.86,0,56.5,0,12.15,0,15.14-3.57,13.4-15.82-.23-1.64-.54-3.28-.92-4.9-7.42-31.3-28.08-49.71-57.93-58.71-21-6.32-42.63-7.36-64.32-5.51-15.92,1.36-31.6,4.1-46.34,11-24.66,11.58-38.7,30.55-41.85,57.68-3.28,28.24,7.5,49.67,32.74,62.66a137.06,137.06,0,0,0,26,9.92c18.56,5.15,37.41,9.27,56,14.29a94.13,94.13,0,0,1,20.36,7.88c10.05,5.47,11.42,17.14,3.11,25a36.13,36.13,0,0,1-11.86,7c-9.53,3.65-19.43,3.79-29.49,2.08-17.5-3-26.15-11-30.08-28.36-1.24-5.49-4.77-9.15-10.08-9.21-17.32-.2-34.65-.23-52,0-6.66.09-10.11,4.23-9.85,11a70.72,70.72,0,0,0,1.32,11.9c6.46,30.41,25.66,49.8,54,60.36,28.1,10.47,57.31,10.9,86.71,7.21,12.94-1.63,25.51-4.73,37.22-10.66,30.8-15.6,45.36-41,44.62-75.2-.45-20.75-9.55-37.38-27.07-48.48a112.74,112.74,0,0,0-27-12.55c-15.86-4.86-32.25-7.93-48.28-12.25-11.18-3-22.3-6.43-33.11-10.54-5.47-2.08-8.93-6.72-8.29-13.44s5.48-9.94,11-11.42a63.34,63.34,0,0,1,41.13,2.31,19.1,19.1,0,0,1,12.41,15.63C1508.75,1427.09,1509.4,1430.64,1510.07,1434.63Zm531.1,13.41c20.77,0,41.74.18,62.71-.11,6.7-.09,9.76-5,8.85-12.55-4.52-37.34-25.51-62.09-59.43-76.27-24.52-10.25-50.27-12.47-76.47-8.3-40.41,6.43-70.06,27.68-87.24,65.11-12.57,27.38-16,56.36-11.17,85.92,6.52,39.92,26.8,70.53,64,88.51,24.18,11.7,49.95,13.82,76.12,10.59,46.93-5.8,85.56-34.07,95.21-91.57,1.44-8.55-2-12.64-10.64-12.7-18.66-.14-37.33-.06-56,0a18.52,18.52,0,0,0-4.13.85c-1.66,6.4-2.79,12.31-4.74,17.93-6,17.27-18.26,26.41-36.55,27.47-18.14,1.05-31.47-6.37-40.24-22.29-5.08-9.23-7.5-19.26-8.66-29.51-2.25-19.82-1-39.4,8.26-57.48,10.8-21,27.6-28.89,52.65-23,11.2,2.64,18.86,9.61,22.63,20.51C2038.13,1436.46,2039.43,1441.94,2041.17,1448ZM1911.7,663.54l72.08,8.61.88-2.12-53.83-49.25,27.7-62.56-1.45-1.27-59.82,33.14L1846.66,544l11.63,67.88-65.91,36.87,74.18,9.22,13.18,73.72,1.5.13ZM1430.57,364l-.54-1.71-71.92,2.45L1333,299.19l-19.82,67.14-68.07,2.83,55.66,39.57-20.92,71.93,58.72-45.26,60.51,42.69,1.18-1.33-26-69.07Zm620,424.89-15.41,66.53-74.4,8.16,64.08,37L2008.48,973l1.41.58,54.18-50.6,64.52,36.81-30.95-68.19c5.68-5.35,11-10.37,16.3-15.37s10.91-9.82,16-15.11c4.81-5,11.62-8.36,15.09-17.14L2079,850.71c-4.68-10.31-9.17-20.28-13.73-30.22S2056.05,800.68,2050.57,788.87ZM860.52,953.69a55.2,55.2,0,1,0-55.35-54.94C805.25,929.54,829.63,953.74,860.52,953.69Zm256,59.57c-.23-23.2-19.37-41.9-42.3-41.34a41.64,41.64,0,0,0-40.85,41.79,41.58,41.58,0,1,0,83.16-.45ZM1078,1686.85c1-11.53-3.68-19.94-12.57-25-16.1-9.24-33-9.79-49.52-.81-10.26,5.59-15,14.86-14,26.67.88,10.86,7.26,17.79,17,21.42,8.38,3.14,17.18,5.12,25.7,7.89,4.07,1.32,8.31,2.73,11.79,5.1,5.57,3.81,5.5,11.17.17,15.27a19.56,19.56,0,0,1-7.13,3.4c-15.42,3.75-25.65-2-30.58-17.13H999.12c-.55,11.11,3,19.53,10.61,25.76,15.1,12.34,45.6,12.75,61.09.83a27.9,27.9,0,0,0-3.24-46.84c-3.72-2.06-8-3.26-12.09-4.49-8.27-2.47-16.65-4.59-24.92-7.06-4.52-1.35-7.61-4-7.08-9.41.47-4.75,3.51-8,8.95-9.35,12.46-3.07,20.16,1,25.93,13.8Zm132.1,73.58c1.21,9.43,5.79,15,13,18.75,7,3.71,14.54,4.36,22.3,4.13,22.43-.66,33.64-11.83,33.82-34.18.15-18.66,0-37.32,0-56,0-2.56-.23-5.13-.37-8h-18l-1.7,6.3c-9.81-9.76-21.06-11-32.62-6.18-12.36,5.15-17.5,16.06-18.36,28.7a59.4,59.4,0,0,0,2,19.7c5.27,18.82,26.49,26.75,43.36,16.71,1.88-1.12,3.68-2.39,5.82-3.8,1.21,12.79-1.29,19.49-7.91,22.22q-11.45,4.72-23.06-8.33Zm645.48-53.82a67,67,0,0,0-5.6-30.46c-5.88-12.87-16.4-18.88-30.2-18.87s-24.66,5.88-29.93,19.07c-8.22,20.57-8.07,41.5-.29,62.2,5.21,13.86,16.3,19.83,30.42,19.81s24.81-6.33,30.45-19.94C1854.57,1728.39,1855.83,1717.94,1855.57,1706.6Zm82.56,20.86c.22,12.77,4.94,21.48,15.59,26.21a57.56,57.56,0,0,0,19.19,4.66c17,1.14,32-10.5,36-27.08,6-24.32-12.35-44.93-35.89-40.2-3.68.74-7.16,2.46-11.73,4.08l3.34-19.23h39.24v-16.17H1950l-9.42,52.91c8.55.17,16.38,2.38,23.64-4.56,5.13-4.9,13.95-3.42,19.4,1.16s7.54,12.61,5.18,20.06c-2.46,7.74-7.72,11.92-15.15,12.22-9.75.4-14.32-5.43-16.64-14.07Zm-210-30.9c.8-3.87,1.19-7.54,2.35-11,1.77-5.21,4.71-9.67,10.78-10.54,5.59-.81,10.77.21,14.18,5.16s4.22,10.94.88,16a54.47,54.47,0,0,1-11.6,12c-7.28,5.77-15.41,10.48-22.54,16.42-9.55,8-15.41,18-14.27,31.47h70.38v-17.23h-43.37l-.69-2.08c6-4.55,12-9.08,18-13.66s12.87-8.56,18-14.08c13.59-14.68,10-37.92-7-47.08-12.58-6.76-25.7-7-38,.77-12.07,7.68-16,19.55-15.35,33.83Zm-334.39,53.26c2.09,1.14,2.94,1.51,3.68,2,18.51,12.95,40.08,5.9,47.11-15.51a49.66,49.66,0,0,0-.72-33.25c-4.86-13.33-15.75-21-30-20-6.63.46-13.08,3.5-19.93,5.46-4.26-7.84-12.24-2.75-19.43-3.74v96h19.28Zm-80.82-43.2c4.39-9.25,12.6-12.85,20.85-9.3,3.46,1.49,4.9,4.21,4.93,7.9a6.19,6.19,0,0,1-4.91,6.59c-2.22.63-4.5,1-6.78,1.46-7.18,1.32-14.54,2-21.51,4-10.14,2.93-14.36,10.13-13.79,21.42.5,10,6.1,16.37,16.23,18.6,11.24,2.47,21.64.19,31-5.76,6.13,9.21,14.2,3.63,20.35,4.52,0-8.5,0-16.12,0-23.75,0-9.32.22-18.64-.07-27.95-.33-11-4.49-16.57-15-19.55a56,56,0,0,0-34.35.68c-9.43,3.32-15.44,10-15.85,21.09Zm348.85,18.71c0-4.72.53-8.41-.09-11.9-3.94-22.2-20.19-35-44.33-29.42-18.33,4.27-29.41,22.76-26.48,42.33,3.11,20.7,17.46,32.95,37.61,32.09,17.42-.74,27.93-8.64,31.13-23.9-7.88-.51-15-1.65-21.69,5.37-5.14,5.4-13,4.56-19.58.94-5.73-3.17-7.87-8.46-6.45-15.52Zm-168.57-42.45c-22.69,0-37.1,14.68-37.11,37.74,0,22.81,14.92,38,37.24,37.92,22.55-.09,36.94-14.91,36.95-38.05S1516.08,1682.85,1493.17,1682.87ZM1148,1756.23c0-13-.16-25,.09-37a42.23,42.23,0,0,1,2-12.69c2.13-6.18,6.86-8.3,14.55-7.65,6.07.51,8.28,2.31,9.75,9.33a67.2,67.2,0,0,1,1.18,12.86c.15,11.55.05,23.11.05,34.78h19.91c0-15.37.13-30-.08-44.62a57.45,57.45,0,0,0-1.74-12.82c-2.14-8.66-8.11-13.74-16.71-15.1-9.46-1.5-18.64-.68-26.23,6.27a14.15,14.15,0,0,1-2.49,1.48l-2.26-6h-17.53v71.13Zm122-691a27.93,27.93,0,0,0-28.37,27.43c-.29,15.79,11.44,28.24,27,28.65a27.9,27.9,0,0,0,29.06-27.76A28.27,28.27,0,0,0,1270,1065.27Zm626.85,594.2c-3.28,15.54-15.13,18.41-27.93,19.56v14.65h23.48V1756h19.8v-96.52Zm-353.48,25.44v71.25h19.3c0-3.73-.07-7,0-10.25.24-9.63,0-19.31,1-28.86,1.07-10.08,7.27-15.11,17.39-15.7,2.55-.15,5.11,0,7.9,0v-17.54c-11.62-3.15-19.19,3.1-26.66,11.08l-1-10Zm-431.17.31h-19.53c0,24-.1,47.48.06,70.9h19.47Zm-.31-12v-15.6h-18.75v15.6Z"/><path class="cls-2" d="M840.53,1517.44a27.57,27.57,0,0,1-2.22-3c-30.1-53.72-61.53-106.76-89.88-161.4A1244.23,1244.23,0,0,1,677,1187.21c-10.6-30.61-18.79-61.79-22.2-94.05-1.64-15.57-2.36-31.25,1-46.78,5.35-25,21.23-38.2,47-39.32,19.93-.86,39.08,3.19,57.93,8.94,37.38,11.4,72.47,28.27,107.21,45.8,64.85,32.73,131.67,60.51,201,82.1,47.42,14.75,95.63,26.08,144.86,32.65,48.39,6.46,96.94,6.83,145.62,3.11a794.08,794.08,0,0,0,159.85-28.6c7.21-2.08,14.38-4.27,22.26-4.73-3,1.86-6,3.81-9.1,5.56-43,24.35-89.14,39.6-137.42,49.33q-70.05,14.11-141.08,21.45a714.47,714.47,0,0,1-122.81,1.51c-41.86-2.95-83.7-6.2-125.57-9.19-21.26-1.52-42.53-3.73-63.81-3.91-64.37-.56-115.51,43.51-125.87,107.27-4.81,29.62-3,59.11,1.07,88.59,4.89,35.37,13.52,69.89,23.93,104,.56,1.85.95,3.75,1.42,5.63Z"/><path class="cls-2" d="M1211.3,1596.21l-35.57-133.75-1.34.11-33.95,133.51h-74.15c-1.26-3.49-2.84-7.42-4.12-11.44q-33.82-106.47-67.55-213c-1.46-4.62-4-9.61,1.23-13.58,1.71-1.29,3.89-2.77,5.86-2.78,22.28-.2,44.56-.12,67.29-.12l36.61,134.9,1.76-.07,33-134.26h71L1244.84,1489l2,.21c12.77-44.34,24-89.12,36.7-133.67h68.77c5.23,3.72,6.35,8.21,4.15,15.12-23.19,72.87-46,145.86-68.94,218.82-.69,2.19-1.66,4.3-2.62,6.75Z"/><path class="cls-2" d="M1772.45,1371v-84.15c0-2.33-.06-4.67,0-7,.25-8,3.56-11.63,11.45-11.71q26.49-.25,53,0c7.4.07,10.66,3.6,11,11,.05,1.33,0,2.67,0,4q0,148.94,0,297.88c0,1.33,0,2.67,0,4-.28,7.84-3.71,11.47-11.59,11.53q-24.49.21-49,0c-7.41-.07-10.82-3.46-11.39-10.67-.13-1.64,0-3.29,0-6.08-2.58,1.8-4.45,2.93-6.11,4.3a71.74,71.74,0,0,1-30.25,14.72c-54.2,12-102.69-8.39-124.13-61.16-18.45-45.41-18.39-91.2,4.7-135.14,28.46-54.14,90.29-65,133.7-43.17C1759.88,1362.45,1765.44,1366.63,1772.45,1371Zm2.65,104.07c-.64-7.28-.92-14.61-2-21.81a69.39,69.39,0,0,0-4.14-15.34c-9.31-23.11-28.25-34-55.72-27.3-17,4.13-25.69,16.92-30.72,32.48-4.55,14.08-5.56,28.74-4,43.39,1.32,12.6,4.2,24.9,11.44,35.72,10.15,15.15,24.19,22.26,42.46,20.55,17.72-1.66,29.14-11.49,35.78-27.61C1773.44,1502.33,1774.6,1488.84,1775.09,1475.12Z"/><path class="cls-2" d="M1510.07,1434.63c-.68-4-1.33-7.54-1.88-11.11a19.1,19.1,0,0,0-12.41-15.63,63.34,63.34,0,0,0-41.13-2.31c-5.52,1.48-10.35,4.55-11,11.42s2.82,11.36,8.29,13.44c10.82,4.11,21.94,7.53,33.11,10.54,16,4.33,32.43,7.4,48.28,12.25a112.74,112.74,0,0,1,27,12.55c17.52,11.1,26.62,27.73,27.07,48.48.74,34.19-13.83,59.6-44.62,75.2-11.71,5.93-24.28,9-37.22,10.66-29.4,3.69-58.61,3.26-86.71-7.21-28.36-10.56-47.56-29.95-54-60.36a70.72,70.72,0,0,1-1.32-11.9c-.26-6.78,3.19-10.92,9.85-11,17.32-.24,34.65-.2,52,0,5.31.06,8.84,3.72,10.08,9.21,3.93,17.4,12.58,25.38,30.08,28.36,10.06,1.71,20,1.57,29.49-2.08a36.13,36.13,0,0,0,11.86-7c8.31-7.88,6.94-19.55-3.11-25a94.13,94.13,0,0,0-20.36-7.88c-18.6-5-37.45-9.14-56-14.29a137.06,137.06,0,0,1-26-9.92c-25.23-13-36-34.41-32.74-62.66,3.15-27.13,17.19-46.1,41.85-57.68,14.74-6.92,30.43-9.67,46.34-11,21.69-1.85,43.34-.81,64.32,5.51,29.86,9,50.51,27.41,57.93,58.71.38,1.62.69,3.26.92,4.9,1.73,12.24-1.25,15.8-13.4,15.82C1547.94,1434.65,1529.3,1434.63,1510.07,1434.63Z"/><path class="cls-2" d="M2041.17,1448c-1.74-6.1-3-11.58-4.87-16.88-3.77-10.9-11.43-17.87-22.63-20.51-25-5.91-41.85,2-52.65,23-9.3,18.09-10.51,37.67-8.26,57.48,1.16,10.26,3.58,20.28,8.66,29.51,8.77,15.92,22.1,23.35,40.24,22.29,18.3-1.06,30.57-10.2,36.55-27.47,1.95-5.62,3.08-11.53,4.74-17.93a18.52,18.52,0,0,1,4.13-.85c18.66-.07,37.33-.15,56,0,8.62.06,12.07,4.15,10.64,12.7-9.65,57.5-48.28,85.77-95.21,91.57-26.18,3.23-51.95,1.11-76.12-10.59-37.16-18-57.44-48.59-64-88.51-4.82-29.56-1.4-58.54,11.17-85.92,17.18-37.43,46.83-58.67,87.24-65.11,26.2-4.17,52-1.94,76.47,8.3,33.92,14.18,54.91,38.93,59.43,76.27.91,7.51-2.15,12.46-8.85,12.55C2082.91,1448.22,2061.94,1448,2041.17,1448Z"/><path class="cls-2" d="M1911.7,663.54l-30.46,68.27-1.5-.13L1866.55,658l-74.18-9.22,65.91-36.87L1846.66,544l50.61,46.08,59.82-33.14,1.45,1.27-27.7,62.56L1984.66,670l-.88,2.12Z"/><path class="cls-2" d="M1554.71,513.84c-2.4-3.36,1.08-4.73,2.49-6.46,11.76-14.47,23.69-28.79,35.54-43.18,2.09-2.54,4.07-5.16,6.27-8L1563.48,398l63.79,24.35,43.11-52,1.61.67-2.84,67.4,67.3,26.18-.05,1.62L1667,484.43l-3.51,76.19c-14.66-22.13-26.62-43.64-40.46-64.84l-68.51,18Z"/><path class="cls-2" d="M1430.57,364l-56.29,43.72,26,69.07-1.18,1.33-60.51-42.69-58.72,45.26,20.92-71.93-55.66-39.57,68.07-2.83L1333,299.19l25.08,65.52,71.92-2.45Z"/><path class="cls-2" d="M2036.86,1245.87l41.2-59-43.22-56.42.63-1.56L2105,1149.3l38-53.16c3.52,21.71,2.45,43.4,4.71,65.76l66.77,20-65.52,24.7,2.15,74.76-45.4-58.59c-19.34,7.23-38.24,14.34-57.17,21.35-3.39,1.26-6.93,2.11-10.41,3.15Q2037.54,1246.55,2036.86,1245.87Z"/><path class="cls-2" d="M2050.57,788.87c5.48,11.81,10.1,21.7,14.65,31.62s9.05,19.91,13.73,30.22L2145,844c-3.47,8.78-10.29,12.13-15.09,17.14-5.07,5.28-10.64,10.08-16,15.11s-10.62,10-16.3,15.37l30.95,68.19L2064.08,923l-54.18,50.6-1.41-.58,16.36-72.51-64.08-37,74.4-8.16Z"/><path class="cls-2" d="M860.52,953.69c-30.89,0-55.27-24.15-55.35-54.94a55.27,55.27,0,1,1,55.35,54.94Z"/><path class="cls-2" d="M1116.51,1013.26a41.58,41.58,0,1,1-83.16.45,41.64,41.64,0,0,1,40.85-41.79C1097.15,971.36,1116.29,990.06,1116.51,1013.26Z"/><path class="cls-2" d="M1078,1686.85h-19.63c-5.77-12.82-13.47-16.87-25.93-13.8-5.44,1.34-8.48,4.6-8.95,9.35-.53,5.37,2.57,8.06,7.08,9.41,8.27,2.47,16.65,4.59,24.92,7.06,4.12,1.23,8.37,2.43,12.09,4.49a27.9,27.9,0,0,1,3.24,46.84c-15.49,11.93-46,11.51-61.09-.83-7.62-6.23-11.16-14.65-10.61-25.76h19.67c4.93,15.09,15.16,20.88,30.58,17.13a19.56,19.56,0,0,0,7.13-3.4c5.33-4.1,5.4-11.47-.17-15.27-3.47-2.38-7.72-3.78-11.79-5.1-8.52-2.77-17.33-4.75-25.7-7.89-9.7-3.63-16.08-10.56-17-21.42-1-11.81,3.77-21.08,14-26.67,16.47-9,33.42-8.43,49.52.81C1074.3,1666.9,1079,1675.32,1078,1686.85Z"/><path class="cls-2" d="M1210.09,1760.42h18.21q11.64,13,23.06,8.33c6.63-2.73,9.13-9.43,7.91-22.22-2.15,1.41-3.94,2.68-5.82,3.8-16.86,10-38.09,2.11-43.36-16.71a59.4,59.4,0,0,1-2-19.7c.86-12.63,6-23.54,18.36-28.7,11.56-4.82,22.81-3.58,32.62,6.18l1.7-6.3h18c.14,2.91.37,5.47.37,8,0,18.66.14,37.32,0,56-.18,22.34-11.39,33.52-33.82,34.18-7.75.23-15.27-.42-22.3-4.13C1215.88,1775.38,1211.3,1769.85,1210.09,1760.42Zm50.43-41c-.94-4.18-1.33-8.6-2.95-12.5-3.37-8.14-13.5-11.58-20.94-7.28-7.63,4.41-9,11.89-8.73,19.9.25,7.68,2.1,14.71,9.63,18.41,5.18,2.54,10.52,1.74,15.1-1.69C1258.12,1732.12,1260,1726.19,1260.52,1719.38Z"/><path class="cls-2" d="M1855.57,1706.6c.26,11.34-1,21.79-5.15,31.8-5.64,13.61-16.29,19.92-30.45,19.94s-25.21-6-30.42-19.81c-7.79-20.7-7.93-41.63.29-62.2,5.27-13.19,16.12-19.06,29.93-19.07s24.32,6,30.2,18.87A67,67,0,0,1,1855.57,1706.6Zm-52.33,3.44c1.45,6.7,2.21,16.15,5.64,24.51,4.09,10,16.65,9.72,22.11.34a24.92,24.92,0,0,0,2.83-7.38,92.57,92.57,0,0,0-.09-39.5,24.23,24.23,0,0,0-4.65-9.7,11.87,11.87,0,0,0-18.95.49,22.4,22.4,0,0,0-4,8.94C1804.87,1694.21,1804.37,1700.83,1803.25,1710Z"/><path class="cls-2" d="M1938.13,1727.46h18.92c2.32,8.64,6.89,14.47,16.64,14.07,7.42-.31,12.69-4.48,15.15-12.22,2.37-7.45.3-15.47-5.18-20.06s-14.28-6.05-19.4-1.16c-7.26,6.94-15.09,4.73-23.64,4.56l9.42-52.91h53.88v16.17h-39.24l-3.34,19.23c4.57-1.62,8.05-3.34,11.73-4.08,23.54-4.73,41.87,15.88,35.89,40.2-4.08,16.58-19,28.21-36,27.08a57.56,57.56,0,0,1-19.19-4.66C1943.07,1748.94,1938.35,1740.23,1938.13,1727.46Z"/><path class="cls-2" d="M1728.09,1696.56h-18.27c-.61-14.28,3.28-26.16,15.35-33.83,12.25-7.8,25.38-7.52,38-.77,17,9.16,20.63,32.41,7,47.08-5.1,5.51-11.92,9.45-18,14.08s-12,9.11-18,13.66l.69,2.08h43.37v17.23h-70.38c-1.15-13.5,4.72-23.52,14.27-31.47,7.13-5.94,15.26-10.65,22.54-16.42a54.47,54.47,0,0,0,11.6-12c3.34-5,2.59-10.92-.88-16s-8.59-6-14.18-5.16c-6.07.88-9,5.34-10.78,10.54C1729.28,1689,1728.89,1692.69,1728.09,1696.56Z"/><path class="cls-2" d="M1393.71,1749.82v31h-19.28v-96c7.18,1,15.17-4.1,19.43,3.74,6.85-2,13.3-5,19.93-5.46,14.25-1,25.14,6.65,30,20a49.66,49.66,0,0,1,.72,33.25c-7,21.41-28.6,28.46-47.11,15.51C1396.65,1751.33,1395.8,1751,1393.71,1749.82Zm-1-29.15c1,4.57,1.44,8.92,2.94,12.86,2.48,6.54,7.65,9.68,14.73,9.63,6.71,0,11.57-3.15,13.93-9.28,3.46-9,3.57-18.19-.47-27a14.53,14.53,0,0,0-14.29-9c-6.52.15-11.57,3.34-13.83,9.52C1394.2,1711.68,1393.7,1716.33,1392.75,1720.67Z"/><path class="cls-2" d="M1312.89,1706.62h-19c.4-11.13,6.42-17.77,15.85-21.09a56,56,0,0,1,34.35-.68c10.53,3,14.69,8.56,15,19.55.28,9.31.06,18.63.07,27.95,0,7.63,0,15.25,0,23.75-6.15-.9-14.22,4.69-20.35-4.52-9.32,6-19.72,8.24-31,5.76-10.13-2.23-15.73-8.65-16.23-18.6-.57-11.29,3.66-18.49,13.79-21.42,7-2,14.33-2.72,21.51-4,2.27-.42,4.56-.82,6.78-1.46a6.19,6.19,0,0,0,4.91-6.59c0-3.69-1.46-6.41-4.93-7.9C1325.49,1693.77,1317.28,1697.37,1312.89,1706.62Zm24.8,16.46c-6.53,1.29-12.47,2.08-18.17,3.7-6.37,1.81-8.7,5.55-7.78,10.85.79,4.58,4.13,6.92,10.42,7.32C1334.34,1745.72,1339.68,1738.52,1337.69,1723.07Z"/><path class="cls-2" d="M1661.74,1725.32h-49.88c-1.42,7.06.72,12.35,6.45,15.52,6.53,3.62,14.45,4.46,19.58-.94,6.68-7,13.81-5.89,21.69-5.37-3.2,15.25-13.71,23.16-31.13,23.9-20.15.85-34.5-11.4-37.61-32.09-2.94-19.58,8.14-38.06,26.48-42.33,24.14-5.63,40.39,7.23,44.33,29.42C1662.27,1716.91,1661.74,1720.6,1661.74,1725.32Zm-49.95-12.91h29.45c-2.19-11-6.57-15.06-15.46-14.57C1617.3,1698.32,1612.66,1703.1,1611.79,1712.41Z"/><path class="cls-2" d="M1493.17,1682.87c22.91,0,37.08,14.35,37.08,37.6s-14.4,38-36.95,38.05c-22.33.09-37.25-15.11-37.24-37.92C1456.06,1697.55,1470.48,1682.89,1493.17,1682.87Zm17.75,38.67c-.93-4.54-1.33-9.24-2.88-13.52-2.54-7-8.35-10.55-15.48-10.16s-11.95,3.93-14.36,10.47a33.63,33.63,0,0,0,.34,25.29c2.5,6,7.17,9.32,13.92,9.54,7,.23,12.44-2.51,15.18-9C1509.27,1730.28,1509.82,1725.92,1510.92,1721.55Z"/><path class="cls-2" d="M1148,1756.23h-19.53V1685.1H1146l2.26,6a14.15,14.15,0,0,0,2.49-1.48c7.59-6.95,16.77-7.77,26.23-6.27,8.61,1.36,14.58,6.44,16.71,15.1a57.45,57.45,0,0,1,1.74,12.82c.21,14.62.08,29.25.08,44.62h-19.91c0-11.66.1-23.22-.05-34.78a67.2,67.2,0,0,0-1.18-12.86c-1.47-7-3.68-8.82-9.75-9.33-7.7-.65-12.43,1.47-14.55,7.65a42.23,42.23,0,0,0-2,12.69C1147.88,1731.23,1148,1743.21,1148,1756.23Z"/><path class="cls-2" d="M1270,1065.27a28.27,28.27,0,0,1,27.67,28.32,27.9,27.9,0,0,1-29.06,27.76c-15.55-.41-27.27-12.86-27-28.65A27.93,27.93,0,0,1,1270,1065.27Z"/><path class="cls-2" d="M1896.89,1659.47h15.35V1756h-19.8v-62.32H1869V1679C1881.76,1677.88,1893.61,1675,1896.89,1659.47Z"/><path class="cls-2" d="M1543.41,1684.9h17.93l1,10c7.47-8,15-14.23,26.66-11.08v17.54c-2.79,0-5.36-.13-7.9,0-10.13.59-16.32,5.61-17.39,15.7-1,9.55-.74,19.23-1,28.86-.08,3.26,0,6.52,0,10.25h-19.3Z"/><path class="cls-2" d="M1112.24,1685.21v70.9h-19.47c-.16-23.43-.05-46.86-.06-70.9Z"/><path class="cls-2" d="M1111.93,1673.25h-18.75v-15.6h18.75Z"/><path class="cls-2" d="M2038.14,1247.3l-3.07.81,1.79-2.23Q2037.53,1246.55,2038.14,1247.3Z"/><path class="cls-2" d="M1554.54,513.79l-.62-.25.78.29S1554.54,513.79,1554.54,513.79Z"/><path class="cls-1" d="M1775.09,1475.12c-.49,13.72-1.65,27.21-6.94,40.07-6.64,16.12-18.06,25.94-35.78,27.61-18.28,1.72-32.31-5.4-42.46-20.55-7.25-10.81-10.12-23.12-11.44-35.72-1.53-14.65-.52-29.31,4-43.39,5-15.55,13.76-28.35,30.72-32.48,27.47-6.68,46.41,4.19,55.72,27.3a69.39,69.39,0,0,1,4.14,15.34C1774.17,1460.51,1774.46,1467.84,1775.09,1475.12Z"/><path class="cls-1" d="M1260.52,1719.38c-.52,6.81-2.4,12.74-7.89,16.85-4.58,3.43-9.92,4.23-15.1,1.69-7.53-3.7-9.39-10.73-9.63-18.41-.26-8,1.1-15.49,8.73-19.9,7.45-4.3,17.57-.86,20.94,7.28C1259.19,1710.79,1259.58,1715.2,1260.52,1719.38Z"/><path class="cls-1" d="M1803.25,1710c1.13-9.21,1.62-15.83,2.86-22.3a22.4,22.4,0,0,1,4-8.94,11.87,11.87,0,0,1,18.95-.49,24.23,24.23,0,0,1,4.65,9.7,92.57,92.57,0,0,1,.09,39.5,24.92,24.92,0,0,1-2.83,7.38c-5.47,9.38-18,9.62-22.11-.34C1805.45,1726.2,1804.7,1716.74,1803.25,1710Z"/><path class="cls-1" d="M1392.75,1720.67c.95-4.34,1.45-9,3-13.26,2.27-6.18,7.31-9.37,13.83-9.52a14.53,14.53,0,0,1,14.29,9c4,8.85,3.93,18.06.47,27-2.36,6.13-7.22,9.23-13.93,9.28-7.08,0-12.24-3.09-14.73-9.63C1394.19,1729.59,1393.76,1725.24,1392.75,1720.67Z"/><path class="cls-1" d="M1337.69,1723.07c2,15.45-3.35,22.65-15.53,21.87-6.29-.4-9.63-2.74-10.42-7.32-.92-5.3,1.41-9,7.78-10.85C1325.22,1725.16,1331.16,1724.37,1337.69,1723.07Z"/><path class="cls-1" d="M1611.79,1712.41c.87-9.31,5.51-14.09,14-14.57,8.89-.49,13.27,3.52,15.46,14.57Z"/><path class="cls-1" d="M1510.92,1721.55c-1.1,4.38-1.64,8.73-3.28,12.62-2.74,6.49-8.14,9.23-15.18,9-6.74-.22-11.42-3.57-13.92-9.54a33.63,33.63,0,0,1-.34-25.29c2.42-6.54,7.37-10.09,14.36-10.47S1505.5,1701,1508,1708C1509.58,1712.31,1510,1717,1510.92,1721.55Z"/></g></g></svg>